<?xml version="1.0" encoding="utf-8"?>
<!-- Generator: Adobe Illustrator 26.0.1, SVG Export Plug-In . SVG Version: 6.00 Build 0)  -->
<svg version="1.1" xmlns="http://www.w3.org/2000/svg" xmlns:xlink="http://www.w3.org/1999/xlink" x="0px" y="0px"
	 viewBox="0 0 448 512" style="enable-background:new 0 0 448 512;" xml:space="preserve">
<style type="text/css">
	.st0{fill:#FFFFFF;stroke:#000000;stroke-miterlimit:10;}
</style>
<g id="Calque_2">
	<rect x="28" y="61" class="st0" width="378" height="372"/>
</g>
<g id="Calque_1" focusable="false">
	<path d="M400,32H48C21.5,32,0,53.5,0,80v352c0,26.5,21.5,48,48,48h352c26.5,0,48-21.5,48-48V80C448,53.5,426.5,32,400,32z M94,416
		c-7,0-13.1-4.9-14.6-11.6l-15-65c-1.6-7.1,2-14.3,8.7-17.2l70-30c6.1-2.6,13.3-0.9,17.5,4.3l31,37.9c48.9-23,88.3-62.9,110.8-110.8
		l-37.9-31c-5.2-4.2-6.9-11.4-4.3-17.5l30-70c2.9-6.7,10.1-10.3,17.2-8.7l65,15C379.2,113,384,119,384,126
		C384,286.3,254.1,416,94,416z"/>
</g>
</svg>
