<svg id="Calque_1" data-name="Calque 1" xmlns="http://www.w3.org/2000/svg" viewBox="0 0 640 512"><defs><style>.cls-1{fill:#fff;}</style></defs><path class="cls-1" d="M608,0H160a32,32,0,0,0-32,32v96H288V64H480V384H608a32,32,0,0,0,32-32V32A32,32,0,0,0,608,0ZM232,103a9,9,0,0,1-9,9H193a9,9,0,0,1-9-9h0V73a9,9,0,0,1,9-9h30a9,9,0,0,1,9,9ZM584,311a9,9,0,0,1-9,9H545a9,9,0,0,1-9-9V281a9,9,0,0,1,9-9h30a9,9,0,0,1,9,9Zm0-104a9,9,0,0,1-9,9H545a9,9,0,0,1-9-9V177a9,9,0,0,1,9-9h30a9,9,0,0,1,9,9Zm0-104a9,9,0,0,1-9,9H545a9,9,0,0,1-9-9h0V73a9,9,0,0,1,9-9h30a9,9,0,0,1,9,9ZM416,160H32A32,32,0,0,0,0,192V480a32,32,0,0,0,32,32H416a32,32,0,0,0,32-32V192A32,32,0,0,0,416,160ZM96,224a32,32,0,1,1-32,32A32,32,0,0,1,96,224ZM384,448H64V416l64-64,32,32L288,256l96,96Z"/></svg>