<?xml version="1.0" standalone="no"?>
<!DOCTYPE svg PUBLIC "-//W3C//DTD SVG 20010904//EN"
 "http://www.w3.org/TR/2001/REC-SVG-20010904/DTD/svg10.dtd">
<svg version="1.0" xmlns="http://www.w3.org/2000/svg"
 width="351.000000pt" height="351.000000pt" viewBox="0 0 351.000000 351.000000"
 preserveAspectRatio="xMidYMid meet">
<metadata>
Created by potrace 1.14, written by Peter Selinger 2001-2017
</metadata>
<g transform="translate(0.000000,351.000000) scale(0.100000,-0.100000)"
fill="#000000" stroke="none">
<path d="M2080 3373 c-52 -21 -66 -26 -75 -29 -38 -11 -62 -16 -77 -16 -10 1
-18 -4 -18 -10 0 -5 -7 -8 -15 -5 -8 4 -17 2 -20 -3 -3 -4 -23 -11 -44 -15
-22 -4 -42 -13 -45 -21 -3 -8 -19 -14 -35 -14 -19 0 -43 -11 -63 -29 -18 -15
-51 -34 -73 -41 -47 -15 -62 -29 -70 -62 -4 -17 -1 -31 9 -41 15 -15 15 -18
-5 -35 -16 -15 -36 -20 -86 -21 -36 0 -70 2 -76 6 -7 4 -18 8 -27 9 -34 6 -48
11 -83 32 -21 12 -45 22 -53 22 -8 0 -14 5 -14 10 0 6 -7 10 -15 10 -8 0 -15
4 -15 9 0 7 -13 14 -50 25 -3 1 -11 5 -19 10 -7 5 -50 18 -95 30 -64 17 -89
19 -121 12 -22 -6 -42 -13 -45 -16 -3 -3 -22 -6 -43 -7 -20 -1 -47 -8 -60 -15
-12 -7 -26 -11 -31 -10 -4 2 -14 -2 -20 -8 -7 -5 -16 -7 -19 -3 -4 3 -7 1 -7
-5 0 -7 -5 -12 -11 -12 -14 0 -98 -40 -116 -55 -7 -5 -19 -16 -27 -22 -8 -7
-18 -13 -22 -13 -4 0 -21 -15 -38 -32 -39 -41 -55 -45 -73 -18 -8 11 -18 18
-23 15 -4 -3 -10 -1 -12 5 -7 20 -93 14 -136 -10 -41 -23 -82 -84 -82 -123 0
-68 43 -159 77 -163 4 0 21 -6 36 -12 16 -7 33 -10 38 -6 5 3 9 0 9 -5 0 -6 7
-11 15 -11 15 0 20 -36 15 -116 -1 -18 6 -38 15 -48 9 -9 14 -16 10 -16 -11 0
28 -62 62 -98 17 -19 36 -31 42 -28 6 4 11 0 11 -8 0 -9 7 -16 16 -16 8 0 12
-4 9 -10 -3 -5 7 -12 22 -16 15 -4 34 -11 41 -17 6 -5 12 -6 12 -1 0 5 5 1 11
-9 6 -9 14 -15 20 -12 5 4 9 1 9 -5 0 -7 7 -10 15 -6 8 3 15 1 15 -5 0 -7 14
-10 34 -7 19 2 33 1 30 -3 -5 -9 22 -19 52 -19 13 0 24 -4 24 -10 0 -5 6 -7
14 -4 8 3 17 0 21 -5 3 -6 11 -9 16 -6 5 4 9 1 9 -4 0 -6 9 -11 20 -11 11 0
20 -4 20 -10 0 -5 6 -10 14 -10 27 0 106 -52 142 -93 50 -59 62 -92 62 -167 0
-63 -11 -95 -29 -84 -5 3 -9 0 -9 -5 0 -6 -9 -11 -20 -11 -16 0 -20 -7 -20
-34 0 -53 -28 -111 -57 -119 -4 -1 -7 -6 -5 -10 1 -5 -2 -6 -6 -3 -5 3 -23 -8
-41 -24 -17 -17 -35 -30 -41 -30 -5 0 -10 -5 -10 -11 0 -5 -4 -8 -9 -5 -10 6
-121 -97 -121 -112 0 -5 -7 -12 -15 -16 -8 -3 -23 -22 -33 -43 -9 -21 -21 -41
-27 -45 -5 -4 -7 -8 -2 -8 4 0 0 -11 -8 -24 -15 -22 -26 -55 -27 -83 -1 -7 -4
-13 -8 -13 -7 0 -23 -52 -35 -115 -3 -16 -8 -41 -11 -55 -3 -14 -6 -41 -7 -60
-2 -19 -6 -41 -11 -49 -5 -7 -4 -16 1 -20 5 -3 10 -24 10 -46 1 -50 6 -71 25
-115 9 -19 21 -48 27 -63 7 -17 16 -25 23 -21 7 4 8 3 4 -4 -4 -8 3 -16 18
-22 15 -5 25 -14 24 -19 -2 -5 7 -18 20 -29 13 -11 23 -23 23 -26 -1 -3 0 -7
0 -8 6 -12 4 -67 -4 -82 -8 -16 -16 -17 -60 -12 -104 13 -214 2 -210 -21 1 -5
-11 -7 -28 -5 -22 3 -29 0 -29 -12 0 -10 -5 -14 -11 -11 -6 4 -17 -2 -25 -14
-8 -12 -22 -21 -31 -21 -9 0 -13 -3 -10 -7 4 -3 -3 -17 -15 -30 -12 -13 -24
-31 -26 -41 -13 -61 -13 -72 2 -87 9 -9 16 -13 16 -9 0 3 6 2 12 -4 7 -5 27
-11 43 -13 17 -2 35 -7 42 -12 16 -12 83 -16 83 -6 0 6 12 8 28 6 15 -2 32 0
39 5 12 10 63 0 63 -12 0 -5 8 -7 18 -5 9 1 27 -3 39 -11 12 -8 44 -16 70 -19
106 -13 126 -15 149 -21 15 -4 24 -2 24 6 0 6 5 8 10 5 11 -7 48 -7 165 -1 44
3 117 5 163 5 46 0 88 4 95 8 6 4 27 6 45 4 22 -2 32 1 28 8 -4 6 3 8 17 5 16
-2 38 6 65 26 36 26 51 30 109 31 45 1 59 3 43 8 -14 4 -46 6 -72 4 -27 -1
-48 1 -48 6 0 13 -51 61 -65 61 -7 0 -30 8 -51 17 -22 9 -42 16 -46 15 -5 -1
-8 3 -8 9 0 7 -9 9 -21 6 -16 -4 -30 3 -52 26 -16 17 -24 33 -18 35 12 4 15
62 3 62 -9 0 -7 34 3 67 5 17 15 23 36 23 15 0 40 5 56 11 32 13 83 14 92 2 8
-11 104 -59 109 -55 3 2 8 0 11 -5 16 -22 154 -52 251 -54 19 -1 41 -6 48 -11
6 -6 12 -7 12 -3 0 4 6 2 14 -4 20 -17 60 33 46 59 -5 9 -6 20 -3 24 3 3 -1 6
-11 6 -9 0 -19 7 -22 15 -4 8 -12 15 -19 15 -7 0 -15 5 -17 11 -2 5 -10 11
-18 12 -8 2 -21 6 -27 10 -7 5 -13 5 -13 1 0 -4 -6 -1 -12 8 -7 9 -30 21 -50
28 -21 6 -38 16 -38 21 0 5 -4 9 -9 9 -4 0 -48 26 -96 58 -48 31 -89 55 -90
52 -2 -3 -15 8 -29 23 -25 27 -28 60 -7 77 3 3 7 12 7 20 1 8 4 28 8 45 3 16
1 32 -5 35 -10 7 -20 38 -23 76 -1 11 -5 24 -8 30 -3 5 -9 24 -13 41 -3 18
-10 33 -13 33 -4 0 -8 17 -9 37 -1 20 -7 39 -14 43 -6 4 -8 13 -5 19 4 6 2 11
-4 11 -6 0 -9 4 -5 9 3 5 1 12 -5 16 -6 4 -8 11 -5 16 4 5 2 9 -4 9 -5 0 -15
17 -22 38 -6 20 -15 42 -20 48 -5 6 -6 14 -2 17 3 4 1 12 -4 19 -6 7 -9 21 -8
31 2 9 0 17 -4 17 -15 0 -6 108 11 127 26 28 30 65 13 106 -8 20 -11 37 -6 37
5 0 9 10 9 23 0 19 31 77 61 113 6 7 7 15 3 20 -4 4 -1 4 5 0 7 -4 23 -1 35 6
13 7 25 13 28 13 3 0 14 6 25 11 32 18 69 24 84 14 12 -7 13 -11 1 -24 -7 -9
-10 -19 -7 -23 4 -3 2 -12 -5 -20 -6 -7 -8 -16 -5 -20 4 -3 2 -13 -3 -22 -13
-25 -15 -193 -3 -216 13 -24 63 -72 63 -61 0 5 7 3 15 -4 8 -6 19 -9 25 -5 5
3 10 2 10 -4 0 -5 8 -10 18 -10 9 0 40 -3 67 -6 58 -6 167 4 160 14 -2 4 6 7
18 5 12 -1 32 5 45 12 12 8 22 12 22 8 0 -3 10 0 23 8 37 25 63 27 75 7 11
-17 22 -18 54 -4 10 4 24 5 31 2 16 -6 103 35 100 48 -1 6 17 11 40 11 38 2
82 9 82 15 0 1 11 3 25 4 73 8 73 9 71 123 0 54 2 62 14 52 7 -6 12 -17 9 -24
-3 -8 2 -21 11 -30 9 -9 17 -25 18 -36 1 -11 5 -20 9 -20 4 0 8 -7 8 -16 0 -8
5 -12 10 -9 6 4 10 -5 10 -19 0 -14 4 -26 9 -26 5 0 7 -9 4 -20 -3 -12 5 -35
19 -58 29 -43 124 -142 136 -142 5 0 17 -9 27 -20 10 -11 15 -20 11 -20 -4 0
0 -7 8 -16 9 -8 14 -19 11 -24 -3 -5 0 -10 5 -12 6 -2 16 -31 23 -66 6 -34 15
-62 19 -62 4 0 5 -6 2 -14 -3 -8 0 -17 5 -21 6 -3 9 -10 6 -15 -3 -5 4 -24 15
-42 27 -44 26 -48 -15 -48 -32 0 -72 -25 -76 -47 -1 -5 -9 -19 -17 -32 -18
-27 -26 -121 -11 -121 6 0 7 -5 4 -10 -10 -16 15 -40 41 -40 22 0 24 -4 24
-44 0 -68 13 -95 44 -89 14 3 26 9 26 14 0 11 30 12 30 2 5 -69 9 -105 14
-111 11 -11 46 -12 46 -1 0 5 4 8 9 5 5 -4 18 5 28 19 13 18 28 25 58 26 46 3
78 16 70 30 -4 5 -1 9 5 9 6 0 16 14 21 30 9 23 17 30 38 30 48 0 79 68 56
123 -9 22 11 71 25 62 6 -3 10 -1 10 5 0 6 4 9 9 6 5 -3 12 1 15 10 10 25 7
84 -4 84 -6 0 -9 4 -8 9 2 5 -13 23 -32 40 -70 63 -70 64 -60 76 11 14 10 56
-3 73 -5 6 -6 12 -2 12 4 0 -8 18 -25 40 -27 34 -37 40 -61 36 -15 -2 -32 -7
-38 -10 -15 -10 -34 -83 -35 -136 -1 -50 -14 -80 -25 -61 -4 6 -7 36 -6 66 1
30 -2 55 -6 55 -5 0 -9 10 -8 23 0 12 -2 40 -6 62 -3 22 -8 69 -11 105 -3 36
-10 80 -15 98 -12 35 -5 142 13 207 6 22 12 83 14 135 3 52 5 119 7 148 1 30
0 55 -4 58 -4 2 -7 21 -7 41 0 40 -10 108 -19 133 -3 8 -7 26 -9 40 -2 14 -6
39 -9 55 -3 17 -6 38 -6 47 0 10 -4 20 -9 23 -4 3 -6 14 -3 25 3 11 1 20 -5
20 -5 0 -13 11 -16 24 -3 13 -26 46 -51 73 -46 48 -98 136 -88 147 3 3 1 11
-4 18 -5 7 -20 40 -33 73 -13 33 -29 63 -34 67 -6 4 -8 8 -3 8 4 0 -5 24 -20
53 -15 28 -26 55 -25 60 1 4 -2 7 -7 7 -5 0 -12 23 -16 50 -4 28 -10 50 -14
50 -3 0 -19 29 -35 65 -26 59 -35 70 -59 66 -4 0 -6 5 -5 11 2 7 -4 13 -12 13
-8 0 -21 6 -28 13 -7 6 -21 12 -30 12 -10 0 -26 6 -37 14 -11 7 -23 14 -27 15
-5 0 -10 2 -13 2 -3 1 -13 2 -22 4 -10 1 -31 7 -47 14 -16 6 -36 9 -43 7 -8
-3 -12 -2 -9 3 8 13 -178 35 -204 24z"/>
<path d="M1810 300 c0 -5 4 -10 9 -10 6 0 13 5 16 10 3 6 -1 10 -9 10 -9 0
-16 -4 -16 -10z"/>
<path d="M1850 303 c0 -10 108 -8 117 1 3 3 -21 6 -55 6 -34 0 -62 -3 -62 -7z"/>
<path d="M2073 294 c10 -11 57 -13 57 -3 0 5 -14 9 -32 9 -17 0 -28 -3 -25 -6z"/>
<path d="M1666 240 c12 -12 324 -29 324 -17 0 4 -19 7 -42 8 -24 0 -63 2 -88
5 -69 7 -199 10 -194 4z"/>
<path d="M2003 214 c9 -9 96 -11 91 -2 -3 4 -26 8 -51 8 -26 0 -44 -3 -40 -6z"/>
<path d="M2125 200 c28 -12 37 -12 30 0 -3 6 -16 10 -28 9 -21 0 -21 -1 -2 -9z"/>
<path d="M2170 202 c0 -4 9 -8 20 -9 11 -1 18 2 15 8 -7 11 -35 12 -35 1z"/>
<path d="M1770 158 c0 -4 17 -8 37 -8 20 0 34 3 30 6 -9 9 -67 11 -67 2z"/>
<path d="M1906 148 c3 -5 10 -6 15 -3 13 9 11 12 -6 12 -8 0 -12 -4 -9 -9z"/>
<path d="M1944 149 c-3 -5 6 -9 20 -9 31 0 34 6 6 13 -11 3 -23 1 -26 -4z"/>
</g>
</svg>
