<?xml version="1.0" standalone="no"?>
<!DOCTYPE svg PUBLIC "-//W3C//DTD SVG 20010904//EN"
 "http://www.w3.org/TR/2001/REC-SVG-20010904/DTD/svg10.dtd">
<svg version="1.0" xmlns="http://www.w3.org/2000/svg"
 width="300.000000pt" height="300.000000pt" viewBox="0 0 300.000000 300.000000"
 preserveAspectRatio="xMidYMid meet">
<metadata>
Created by potrace 1.14, written by Peter Selinger 2001-2017
</metadata>
<g transform="translate(0.000000,300.000000) scale(0.100000,-0.100000)"
fill="#000000" stroke="none">
<path d="M1874 2371 c-2 -3 -24 -4 -48 -2 -29 1 -47 -3 -56 -14 -7 -8 -19 -15
-26 -15 -8 0 -14 -5 -14 -11 0 -5 -4 -8 -8 -5 -5 3 -15 -4 -22 -15 -8 -10 -22
-19 -31 -19 -9 0 -22 -7 -29 -15 -7 -8 -16 -12 -21 -9 -5 3 -9 1 -9 -3 0 -5
-18 -16 -41 -26 -22 -10 -56 -33 -75 -52 -19 -19 -40 -32 -48 -29 -8 3 -22 -9
-36 -31 -12 -20 -34 -44 -49 -53 -40 -26 -73 -61 -66 -71 3 -5 1 -13 -5 -16
-7 -4 -1 -15 15 -29 25 -22 26 -23 8 -45 -37 -45 -219 -66 -287 -33 -22 11
-30 11 -36 2 -6 -9 -10 -8 -17 5 -5 9 -14 17 -19 16 -5 0 -18 2 -30 5 -11 3
-29 7 -40 9 -10 2 -19 4 -19 5 0 8 -42 6 -52 -2 -8 -6 -13 -7 -13 -1 0 6 -28
10 -62 10 -50 0 -74 -5 -118 -28 -30 -16 -61 -29 -67 -29 -7 0 -13 -5 -13 -11
0 -5 -4 -7 -10 -4 -5 3 -15 -3 -22 -15 -7 -11 -18 -20 -25 -20 -6 0 -25 -11
-41 -25 -17 -14 -33 -25 -36 -25 -7 0 -69 -62 -118 -118 -14 -16 -24 -33 -21
-36 3 -3 -2 -8 -11 -12 -9 -3 -14 -10 -11 -14 8 -14 -38 -20 -54 -7 -12 10
-13 9 -7 -3 5 -11 4 -11 -6 1 -9 11 -25 15 -48 13 -58 -6 -74 -12 -102 -39
-27 -25 -28 -30 -28 -120 0 -94 0 -95 33 -128 27 -26 41 -33 70 -32 20 1 37
-1 37 -4 0 -4 15 -6 32 -6 25 0 33 -5 36 -20 2 -11 6 -27 9 -35 5 -14 11 -36
17 -67 6 -34 156 -164 156 -136 0 4 4 3 8 -3 10 -14 81 -46 90 -40 5 3 27 -2
51 -10 23 -8 46 -12 51 -9 5 3 11 1 15 -5 4 -6 12 -7 18 -3 17 10 49 15 44 6
-3 -5 25 -8 61 -8 56 -1 127 -9 127 -15 0 -1 9 -3 20 -5 52 -9 113 -30 140
-49 67 -46 92 -79 110 -151 9 -39 21 -75 26 -81 5 -6 6 -14 2 -18 -4 -4 44 -5
106 -4 128 3 118 -3 147 93 19 62 37 84 118 143 39 28 49 31 65 20 15 -9 17
-16 10 -30 -7 -13 -6 -18 3 -18 9 0 9 -3 1 -11 -8 -8 -9 -19 -2 -37 6 -15 6
-29 1 -34 -5 -5 -3 -29 5 -56 8 -26 17 -53 19 -59 2 -10 59 -13 237 -13 l233
0 34 25 c31 23 36 24 46 10 12 -16 44 -21 44 -7 0 5 17 14 39 20 21 7 56 30
77 52 22 22 44 38 51 35 7 -2 18 1 25 8 13 12 39 26 96 49 28 11 37 25 33 51
-1 4 -4 24 -7 44 -3 20 -10 47 -15 60 -11 31 -11 33 1 33 6 0 14 -8 17 -18 8
-21 11 -24 70 -90 27 -29 49 -57 49 -62 1 -6 2 -15 3 -21 2 -21 72 -80 89 -75
24 7 239 56 247 56 4 0 5 111 3 248 -3 232 -4 250 -26 294 -12 26 -22 53 -22
61 0 7 -13 41 -30 75 -16 34 -30 67 -30 72 0 6 -4 10 -8 10 -4 0 -8 10 -9 22
-1 11 -7 24 -13 28 -6 4 -12 17 -13 28 -1 12 -4 22 -8 22 -4 0 -10 9 -14 20
-9 27 -72 92 -117 119 -43 26 -98 85 -98 106 0 8 -4 15 -10 15 -5 0 -17 14
-26 32 -17 33 -26 45 -61 83 -13 13 -23 29 -23 35 0 6 -4 8 -10 5 -5 -3 -10 0
-10 7 0 7 -13 27 -28 43 -15 17 -36 48 -46 70 -11 22 -30 51 -42 65 -13 14
-38 42 -55 62 -21 26 -42 39 -67 44 -20 4 -46 9 -57 11 -46 11 -293 22 -301
14z"/>
</g>
</svg>
