<?xml version="1.0" encoding="utf-8"?>
<!-- Generator: Adobe Illustrator 26.0.1, SVG Export Plug-In . SVG Version: 6.00 Build 0)  -->
<svg version="1.1" id="Calque_1" xmlns="http://www.w3.org/2000/svg" xmlns:xlink="http://www.w3.org/1999/xlink" x="0px" y="0px"
	 viewBox="0 0 474.3 500" style="enable-background:new 0 0 474.3 500;" xml:space="preserve">
<style type="text/css">
	.st0{fill:none;}
	.st1{fill:#FFFFFF;}
</style>
<g>
	<path class="st0" d="M487.6,500c-166.7,0-333.4,0-500,0c0-166.7,0-333.4,0-500c166.7,0,333.4,0,500,0
		C487.6,166.7,487.6,333.4,487.6,500z M22,455.7c3-0.9,4.8-1.1,6.3-1.9c15.1-7,30.1-14.1,45.1-21.2c4.2-2,8.4-3.7,12.5-5.9
		c8.7-4.9,18.8-8.5,25.7-15.2c35.2-34.1,69.5-69,104.1-103.7c8.8-8.8,17.4-17.8,25.7-26.4c22.9,22.9,45,44.9,67,67
		c-6.3,15.7-9,31.8-4.6,49.1c5.7,22.8,19.3,39.2,39.6,50.1c17.4,9.3,35.9,9.5,54.7,4.6c1.8-0.5,3.7-1.4,5.2-2.6c3.9-3,1.3-8-3.1-12
		c-5.4-5-11-9.8-16.2-15c-5.9-5.9-11.3-12.2-17.1-18.1c-5.5-5.7-5.6-8.8,0.1-14.5c6.4-6.4,12.8-12.7,19.1-19
		c6.3-6.3,9.9-6.3,16.2,0.1c11.5,11.6,23,23.1,34.6,34.7c4.7,4.7,8.3,3.7,10.7-2.3c5-12.5,4.5-25.4,2.5-38.4
		c-2-13.7-8.4-25.2-17.8-35.2c-10.6-11.3-23.1-19.3-38.5-22.7c-9.4-2.1-18.8-3.1-28.3-0.9c-7.1,1.6-14.2,3.5-20.7,5.1
		c-22.1-22-44.3-44-66.5-66.2c42.8-43.3,85.7-86.5,127.9-129.2c-15.4-15.5-30.6-30.9-46.6-47c-42.8,42.9-85.7,86-128.3,128.8
		c-21.9-21.9-44-44-66.1-66.2c6.6-14.6,9.3-30.3,5.7-46.2c-3.9-17.3-12.3-32.1-26.5-43.6c-20.9-16.8-44.1-20.9-69.5-13.4
		c-7.5,2.2-8.3,7.2-2.7,12.5c11.4,10.8,22.7,21.7,33.7,32.8c6.8,6.8,6.4,10.7-0.5,17.5c-6.4,6.3-12.7,12.7-19.1,19.1
		c-4.5,4.5-9.1,4.6-13.7,0.1c-2.5-2.4-4.9-5-7.4-7.4c-9.7-9.7-19.3-19.4-29-29c-4.2-4.1-7.9-3-10.3,2.3c-5,11.4-4.4,23.4-3.3,35.1
		c0.8,8.2,3.7,16.7,7.8,23.9c6.9,12.4,16.7,22.7,29.4,29.9c9.8,5.6,20.2,8.7,31.2,9.6c13.2,1.2,25.8-1.6,37.8-6.9
		c22.2,22.3,44.3,44.5,67.3,67.5c-2.6,2.2-5.5,4.4-8.1,6.9c-9.3,9.1-18.4,18.3-27.6,27.5c-12.7,12.8-25.4,25.6-38.1,38.4
		c-13.4,13.6-26.8,27.2-40.2,40.9c-11.9,12.2-24.5,23.5-31.1,40.4c-7.9,20.1-18.4,39.2-27.7,58.8C22.7,450.1,22.7,452.3,22,455.7z
		 M373,57.4c15.5,15.6,30.6,30.8,46.2,46.5c8.9-9.1,18-18.3,27.1-27.5c7.6-7.8,7.6-17.6,0-25.3c-7.1-7.2-14.3-14.4-21.5-21.5
		c-6.2-6.1-17-6.4-23.3-0.3C391.7,38.5,382.3,48.1,373,57.4z"/>
	<path class="st1" d="M22,455.7c0.7-3.4,0.6-5.6,1.5-7.4c9.3-19.6,19.8-38.7,27.7-58.8c6.6-16.9,19.2-28.2,31.1-40.4
		c13.4-13.7,26.7-27.3,40.2-40.9c12.7-12.8,25.4-25.6,38.1-38.4c9.2-9.2,18.3-18.4,27.6-27.5c2.5-2.5,5.4-4.6,8.1-6.9
		c-23-23-45.1-45.2-67.3-67.5c-12,5.2-24.6,8-37.8,6.9c-11-1-21.4-4.1-31.2-9.6c-12.7-7.2-22.4-17.5-29.4-29.9
		c-4-7.2-7-15.7-7.8-23.9c-1.1-11.7-1.7-23.7,3.3-35.1c2.3-5.2,6.1-6.4,10.3-2.3c9.7,9.6,19.3,19.3,29,29c2.5,2.5,4.9,5,7.4,7.4
		c4.6,4.5,9.2,4.5,13.7-0.1c6.3-6.4,12.7-12.8,19.1-19.1c6.9-6.8,7.2-10.7,0.5-17.5c-11.1-11.1-22.4-22-33.7-32.8
		c-5.6-5.3-4.8-10.3,2.7-12.5c25.4-7.4,48.5-3.4,69.5,13.4c14.3,11.4,22.6,26.3,26.5,43.6c3.6,15.9,0.9,31.6-5.7,46.2
		c22.1,22.2,44.2,44.2,66.1,66.2c42.7-42.8,85.6-85.9,128.3-128.8c16,16.1,31.2,31.5,46.6,47c-42.2,42.6-85,85.9-127.9,129.2
		c22.3,22.2,44.4,44.2,66.5,66.2c6.5-1.6,13.6-3.4,20.7-5.1c9.5-2.2,18.9-1.2,28.3,0.9c15.4,3.4,27.9,11.3,38.5,22.7
		c9.4,10,15.8,21.5,17.8,35.2c1.9,13,2.4,25.8-2.5,38.4c-2.4,6-6,7-10.7,2.3c-11.6-11.5-23.1-23.1-34.6-34.7
		c-6.3-6.4-9.9-6.4-16.2-0.1c-6.3,6.4-12.8,12.7-19.1,19c-5.7,5.7-5.7,8.8-0.1,14.5c5.8,6,11.2,12.2,17.1,18.1
		c5.2,5.2,10.8,10,16.2,15c4.3,4,6.9,9,3.1,12c-1.5,1.2-3.4,2.1-5.2,2.6c-18.8,4.9-37.3,4.6-54.7-4.6
		c-20.3-10.8-33.9-27.2-39.6-50.1c-4.3-17.2-1.7-33.3,4.6-49.1c-22-22-44.1-44.1-67-67c-8.3,8.6-16.9,17.6-25.7,26.4
		c-34.6,34.7-69,69.6-104.1,103.7c-7,6.7-17,10.4-25.7,15.2c-4,2.2-8.3,4-12.5,5.9c-15,7.1-30.1,14.2-45.1,21.2
		C26.8,454.6,25,454.9,22,455.7z"/>
	<path class="st1" d="M373,57.4c9.3-9.2,18.7-18.9,28.4-28.2c6.3-6.1,17.1-5.8,23.3,0.3c7.2,7.1,14.4,14.3,21.5,21.5
		c7.6,7.8,7.6,17.6,0,25.3c-9.1,9.3-18.2,18.5-27.1,27.5C403.6,88.2,388.5,73,373,57.4z"/>
</g>
</svg>
