<svg id="Calque_1" data-name="Calque 1" xmlns="http://www.w3.org/2000/svg" viewBox="0 0 434.42 378.96"><defs><style>.cls-1{fill:#fff;}</style></defs><path class="cls-1" d="M.05,193a848.17,848.17,0,0,0,160,26.41c0,3.14,0,6.2,0,9.26,0,14.29,8.57,22.89,22.79,22.91q34.44,0,68.89,0c14.12,0,22.76-8.73,22.84-23,0-3,0-5.93,0-9.2A846.12,846.12,0,0,0,434.41,193v4.43q0,70.88,0,141.74c0,23.66-16.11,39.78-39.72,39.78h-355C16.17,379,.06,362.76.06,339.07q0-70.86,0-141.74Z"/><path class="cls-1" d="M434.41,175.73a839.26,839.26,0,0,1-159.84,26.4c0-2.28,0-4.22,0-6.16-.24-13.26-9-22-22.26-22q-34.83-.07-69.66,0c-14,0-22.53,8.67-22.59,22.72,0,1.61,0,3.21,0,5.16-2,0-3.71.11-5.39,0A853.2,853.2,0,0,1,3.57,176.71c-3-.78-3.59-2-3.57-4.83.12-18.5,0-37,.07-55.51C.13,93,16.36,76.77,39.71,76.76q177.87,0,355.76,0c22.56,0,38.9,16.47,38.94,39.1q0,28.13,0,56.26Z"/><path class="cls-1" d="M307.19,61.5H278.31c0-4.8,0-9.49,0-14.19,0-11.94-6.09-18.07-17.9-18.07q-43.24,0-86.5,0c-11.47,0-17.57,6.09-17.6,17.53,0,4.84,0,9.68,0,14.71H127.89C122.4,27.79,139.68.74,172.92.24c29.83-.44,59.67-.15,89.5-.07a44.62,44.62,0,0,1,44.75,44.4C307.25,50.07,307.19,55.56,307.19,61.5Z"/><path class="cls-1" d="M217.17,236.48q-17.22,0-34.43,0c-5.63,0-7.58-2-7.59-7.68q0-16.11,0-32.23c0-5.48,2-7.48,7.39-7.49q34.8,0,69.59,0c5.17,0,7.22,2.06,7.24,7.29q.08,16.29,0,32.6c0,5.6-2,7.51-7.79,7.52Q234.39,236.5,217.17,236.48Z"/></svg>