<?xml version="1.0" encoding="utf-8"?>
<!-- Generator: Adobe Illustrator 26.0.1, SVG Export Plug-In . SVG Version: 6.00 Build 0)  -->
<svg version="1.1" id="Calque_1" xmlns="http://www.w3.org/2000/svg" xmlns:xlink="http://www.w3.org/1999/xlink" x="0px" y="0px"
	 viewBox="0 0 2500 2455" style="enable-background:new 0 0 2500 2455;" xml:space="preserve">
<style type="text/css">
	.st0{fill:#070707;}
	.st1{fill:#020202;}
	.st2{fill:#2D2D2D;}
</style>
<path class="st0" d="M71.4,877.6c0,0-59.2-42.7,11.8-99.6l165.5-148c0,0,47.3-49.8,97.4-6.4l1526.9,1156v554.3
	c0,0-0.7,87-112.4,77.4L71.4,877.6z"/>
<path class="st1" d="M465,1234.9L71.4,1592.7c0,0-40.4,30.1,0,83.8l182.7,166.2c0,0,43.4,46.6,107.5-6.4L778.9,1520L465,1234.9z"/>
<path d="M1155.9,1237.9l721.8-551.1l-4.7-551.4c0,0-30.8-120.3-133.6-57.7L778.9,951.8L1155.9,1237.9z"/>
<path class="st2" d="M1760.6,2412.1c41.9,42.9,92.7,28.9,92.7,28.9l562.5-277.2c72-49.1,61.9-110,61.9-110V398.7
	c0-72.7-74.5-97.9-74.5-97.9l-487.5-235C1809.1,0,1739.3,77.7,1739.3,77.7s89.8-64.6,133.6,57.7v2188.4c0,15-3.2,29.8-9.6,43.2
	c-12.8,25.9-40.7,50.1-107.5,39.9L1760.6,2412.1z"/>
</svg>
